{"title":"Swedish House Mafia Vs. Knife Party - Antidote [Music Video] 720","uid":10170347,"size":31534638,"categoryP":"video","categoryS":"music_videos","magnet":"?xt=urn:btih:859faf1cc2dfc814b8f56b2e77409ec4eb2165c4&amp;dn=Swedish+House+Mafia+Vs.+Knife+Party+-+Antidote+%5BMusic+Video%5D+720&amp;tr=udp%3A%2F%2Ftracker.openbittorrent.com%3A80&amp;tr=udp%3A%2F%2Fopen.demonii.com%3A1337&amp;tr=udp%3A%2F%2Ftracker.coppersurfer.tk%3A6969&amp;tr=udp%3A%2F%2Fexodus.desync.com%3A6969","seeders":0,"leechers":0,"uploader":"Sbyky","files":1,"time":1400397415,"description":"\n\nGeneral\nComplete name                            : Swedish House Mafia Vs. Knife Party - Antidote [Music Video] 720p [Sbyky].MP4\nFormat                                   : MPEG-4\nFormat profile                           : Base Media\nCodec ID                                 : isom\nFile size                                : 30.1 MiB\nDuration                                 : 3mn 14s\nOverall bit rate mode                    : Variable\nOverall bit rate                         : 1 297 Kbps\nEncoded date                             : UTC 2013-12-10 08:18:59\nTagged date                              : UTC 2013-12-10 08:18:59\n\nVideo\nID                                       : 1\nFormat                                   : AVC\nFormat/Info                              : Advanced Video Codec\nFormat profile                           : &lt;a class=&quot;__cf_email__&quot; href=&quot;/cdn-cgi/l/email-protection&quot; data-cfemail=&quot;98d5f9f1f6d8d4abb6a9&quot;&gt;[email&amp;#160;protected]&lt;/a&gt;&lt;script data-cfhash='f9e31' type=&quot;text/javascript&quot;&gt;\n/* &lt;![CDATA[ */!function(){try{var t=&quot;currentScript&quot;in document?document.currentScript:function(){for(var t=document.getElementsByTagName(&quot;script&quot;),e=t.length;e--;)if(t[e].getAttribute(&quot;data-cfhash&quot;))return t[e]}();if(t&amp;&amp;t.previousSibling){var e,r,n,i,c=t.previousSibling,a=c.getAttribute(&quot;data-cfemail&quot;);if(a){for(e=&quot;&quot;,r=parseInt(a.substr(0,2),16),n=2;a.length-n;n+=2)i=parseInt(a.substr(n,2),16)^r,e+=String.fromCharCode(i);e=document.createTextNode(e),c.parentNode.replaceChild(e,c)}t.parentNode.removeChild(t);}}catch(u){}}()/* ]]&gt; */&lt;/script&gt;\nFormat settings, CABAC                   : Yes\nFormat settings, ReFrames                : 3 frames\nCodec ID                                 : avc1\nCodec ID/Info                            : Advanced Video Coding\nDuration                                 : 3mn 14s\nBit rate                                 : 1 168 Kbps\nWidth                                    : 1 280 pixels\nHeight                                   : 720 pixels\nDisplay aspect ratio                     : 16:9\nFrame rate mode                          : Constant\nFrame rate                               : 25.000 fps\nColor space                              : YUV\nChroma subsampling                       : 4:2:0\nBit depth                                : 8 bits\nScan type                                : Progressive\nBits/(Pixel*Frame)                       : 0.051\nStream size                              : 27.1 MiB (90%)\nEncoded date                             : UTC 2013-12-10 08:18:59\nTagged date                              : UTC 2013-12-10 08:18:59\n\nAudio\nID                                       : 2\nFormat                                   : AAC\nFormat/Info                              : Advanced Audio Codec\nFormat profile                           : LC\nCodec ID                                 : 40\nDuration                                 : 3mn 14s\nBit rate mode                            : Variable\nBit rate                                 : 126 Kbps\nChannel(s)                               : 2 channels\nChannel positions                        : Front: L R\nSampling rate                            : 44.1 KHz\nCompression mode                         : Lossy\nStream size                              : 2.91 MiB (10%)\nEncoded date                             : UTC 2013-12-10 08:18:12\nTagged date                              : UTC 2013-12-10 08:18:12\n\nShared By Sbyky\n","torrent":{"xt":"urn:btih:859faf1cc2dfc814b8f56b2e77409ec4eb2165c4","amp;dn":"Swedish+House+Mafia+Vs.+Knife+Party+-+Antidote+%5BMusic+Video%5D+720","amp;tr":["udp%3A%2F%2Ftracker.openbittorrent.com%3A80","udp%3A%2F%2Fopen.demonii.com%3A1337","udp%3A%2F%2Ftracker.coppersurfer.tk%3A6969","udp%3A%2F%2Fexodus.desync.com%3A6969"],"infoHash":"859faf1cc2dfc814b8f56b2e77409ec4eb2165c4","infoHashBuffer":{"type":"Buffer","data":[133,159,175,28,194,223,200,20,184,245,107,46,119,64,158,196,235,33,101,196]},"announce":[],"urlList":[]}}